<svg width="23" height="22" viewBox="0 0 23 22" fill="none" xmlns="http://www.w3.org/2000/svg">
<rect x="0.5" y="0.5" width="22" height="21" rx="2.5" fill="#015FB6" stroke="#015FB6"/>
<path d="M11.9004 4.53027L10.6699 5.29199L9.89844 9.95996L10.8311 10.7217H8.03809L8.54102 10.2188L7.95996 6.43945L7.17871 10.4287L7.98926 11.0684L5.17188 10.9219L6.11914 10.1895L4.74219 5.23828L3.62891 4.69141L7.08105 4.11035L6.09961 4.82812L6.7002 9.46191L7.53027 6.1416L6.87109 5.66797L9.41992 5.34082L8.57031 6.01953L9.18066 9.12012L10.001 5.05762L9.06836 4.33008L11.9004 4.53027Z" fill="white"/>
<path d="M15.251 8.91016V10.3213L16.4814 10.9316H12.8486L14.0596 10.209L14.4014 5.18945L12.9414 4.30078C13.1107 4.27474 13.2832 4.25358 13.459 4.2373C13.638 4.22103 13.8138 4.20964 13.9863 4.20312C14.1621 4.19336 14.3314 4.18685 14.4941 4.18359C14.6602 4.18034 14.8148 4.17871 14.958 4.17871C15.2835 4.17871 15.6074 4.1901 15.9297 4.21289C16.252 4.23568 16.5596 4.27962 16.8525 4.34473C17.1488 4.40658 17.4222 4.49284 17.6729 4.60352C17.9268 4.71419 18.1465 4.85742 18.332 5.0332C18.5176 5.20573 18.6624 5.41569 18.7666 5.66309C18.874 5.91048 18.9277 6.2002 18.9277 6.53223C18.9277 6.83496 18.8789 7.10352 18.7812 7.33789C18.6868 7.57227 18.5566 7.77897 18.3906 7.95801C18.2279 8.13379 18.0358 8.2819 17.8145 8.40234C17.5931 8.52279 17.3587 8.62207 17.1113 8.7002C16.8639 8.77507 16.61 8.82878 16.3496 8.86133C16.0892 8.89388 15.8353 8.91016 15.5879 8.91016H15.251ZM15.251 4.82812V8.42188C15.6318 8.42188 15.9541 8.38444 16.2178 8.30957C16.4814 8.2347 16.7012 8.1403 16.877 8.02637C17.0527 7.90918 17.1895 7.7806 17.2871 7.64062C17.388 7.4974 17.4629 7.36068 17.5117 7.23047C17.5605 7.09701 17.5898 6.97819 17.5996 6.87402C17.6126 6.7666 17.6191 6.68848 17.6191 6.63965C17.6191 6.57454 17.6126 6.48503 17.5996 6.37109C17.5898 6.25391 17.5622 6.12858 17.5166 5.99512C17.471 5.86165 17.4027 5.72656 17.3115 5.58984C17.2204 5.44987 17.0934 5.32454 16.9307 5.21387C16.7679 5.09993 16.5645 5.00716 16.3203 4.93555C16.0794 4.86393 15.7865 4.82812 15.4414 4.82812H15.251Z" fill="white"/>
<rect x="4.25" y="14" width="14.5" height="5" rx="0.75" fill="#FFFDFD" stroke="white" stroke-width="0.5"/>
<rect width="1.07143" height="3.66667" rx="0.1" transform="matrix(-1 0 0 1 9.07144 14.6667)" fill="#2C2B2B" fill-opacity="0.84"/>
<rect width="1.07143" height="2.75" rx="0.1" transform="matrix(-1 0 0 1 11.0714 14.6667)" fill="#2C2B2B" fill-opacity="0.84"/>
<rect width="1.07143" height="1.83333" rx="0.1" transform="matrix(-1 0 0 1 13.0714 14.6667)" fill="#2C2B2B" fill-opacity="0.84"/>
<rect width="1.07143" height="0.916667" rx="0.1" transform="matrix(-1 0 0 1 15.0714 14.6667)" fill="#2C2B2B" fill-opacity="0.84"/>
</svg>
