<svg width="21" height="19" viewBox="0 0 21 19" fill="none" xmlns="http://www.w3.org/2000/svg">
<path d="M15.75 6.33332H14.875V4.74999C14.875 2.56499 12.915 0.791656 10.5 0.791656C8.085 0.791656 6.125 2.56499 6.125 4.74999V6.33332H5.25C4.2875 6.33332 3.5 7.04582 3.5 7.91666V15.8333C3.5 16.7042 4.2875 17.4167 5.25 17.4167H15.75C16.7125 17.4167 17.5 16.7042 17.5 15.8333V7.91666C17.5 7.04582 16.7125 6.33332 15.75 6.33332ZM10.5 13.4583C9.5375 13.4583 8.75 12.7458 8.75 11.875C8.75 11.0042 9.5375 10.2917 10.5 10.2917C11.4625 10.2917 12.25 11.0042 12.25 11.875C12.25 12.7458 11.4625 13.4583 10.5 13.4583ZM13.2125 6.33332H7.7875V4.74999C7.7875 3.39624 9.00375 2.29582 10.5 2.29582C11.9963 2.29582 13.2125 3.39624 13.2125 4.74999V6.33332Z" fill="black" fill-opacity="0.84"/>
</svg>
