<svg width="24" height="23" viewBox="0 0 24 23" fill="none" xmlns="http://www.w3.org/2000/svg">
<path d="M12 14.2C13.7673 14.2 15.2 12.7673 15.2 11C15.2 9.23269 13.7673 7.8 12 7.8C10.2327 7.8 8.8 9.23269 8.8 11C8.8 12.7673 10.2327 14.2 12 14.2Z" fill="black" fill-opacity="0.9"/>
<path d="M9 1L7.17 3H4C2.9 3 2 3.9 2 5V17C2 18.1 2.9 19 4 19H20C21.1 19 22 18.1 22 17V5C22 3.9 21.1 3 20 3H16.83L15 1H9ZM12 16C9.24 16 7 13.76 7 11C7 8.24 9.24 6 12 6C14.76 6 17 8.24 17 11C17 13.76 14.76 16 12 16Z" fill="black" fill-opacity="0.9"/>
</svg>
