<svg width="20" height="17" viewBox="0 0 20 17" fill="none" xmlns="http://www.w3.org/2000/svg">
<path d="M14.0909 9.71429C13 9.71429 11.3 10.1271 10 10.9286C8.7 10.115 7 9.71429 5.90909 9.71429C3.93636 9.71429 0 11.0257 0 13.6607V17H20V13.6607C20 11.0257 16.0636 9.71429 14.0909 9.71429ZM10.4545 15.1786H1.36364V13.6607C1.36364 13.005 3.69091 11.5357 5.90909 11.5357C8.12727 11.5357 10.4545 13.005 10.4545 13.6607V15.1786ZM18.6364 15.1786H11.8182V13.6607C11.8182 13.1021 11.6364 12.6164 11.3455 12.1793C12.1455 11.815 13.1273 11.5357 14.0909 11.5357C16.3091 11.5357 18.6364 13.005 18.6364 13.6607V15.1786ZM5.90909 8.5C7.66364 8.5 9.09091 6.59357 9.09091 4.25C9.09091 1.90643 7.66364 0 5.90909 0C4.15455 0 2.72727 1.90643 2.72727 4.25C2.72727 6.59357 4.15455 8.5 5.90909 8.5ZM5.90909 1.82143C6.90909 1.82143 7.72727 2.91429 7.72727 4.25C7.72727 5.58571 6.90909 6.67857 5.90909 6.67857C4.90909 6.67857 4.09091 5.58571 4.09091 4.25C4.09091 2.91429 4.90909 1.82143 5.90909 1.82143ZM14.0909 8.5C15.8455 8.5 17.2727 6.59357 17.2727 4.25C17.2727 1.90643 15.8455 0 14.0909 0C12.3364 0 10.9091 1.90643 10.9091 4.25C10.9091 6.59357 12.3364 8.5 14.0909 8.5ZM14.0909 1.82143C15.0909 1.82143 15.9091 2.91429 15.9091 4.25C15.9091 5.58571 15.0909 6.67857 14.0909 6.67857C13.0909 6.67857 12.2727 5.58571 12.2727 4.25C12.2727 2.91429 13.0909 1.82143 14.0909 1.82143Z" fill="#7E7E7E"/>
</svg>
