<svg width="14" height="13" viewBox="0 0 14 13" fill="none" xmlns="http://www.w3.org/2000/svg">
<path d="M6.99999 9.39649L10.4627 11.8597L9.13733 7.88211L12.6 5.47369H8.35333L6.99999 1.36842L5.64666 5.47369H1.39999L4.86266 7.88211L3.53733 11.8597L6.99999 9.39649Z" fill="#FFD601"/>
<path d="M14 4.95368L8.967 4.52947L7 0L5.033 4.53632L0 4.95368L3.822 8.19L2.674 13L7 10.4479L11.326 13L10.185 8.19L14 4.95368ZM7 9.16842L4.368 10.7216L5.068 7.79316L2.744 5.82263L5.81 5.56263L7 2.80526L8.197 5.56947L11.263 5.82947L8.939 7.8L9.639 10.7284L7 9.16842Z" fill="#FFD601"/>
</svg>
